<svg width="148" height="38" viewBox="0 0 148 38" fill="none" xmlns="http://www.w3.org/2000/svg">
<path d="M0.92 10.88V9.8H12.28C15.5333 9.8 18.0267 10.8533 19.76 12.96C21.4933 15.0667 22.36 18.04 22.36 21.88V24.88C22.36 28.7467 21.4933 31.7333 19.76 33.84C18.0267 35.9467 15.5333 37 12.28 37H0.92V35.96L3.12 35.72C3.54667 35.6667 3.8 35.56 3.88 35.4C3.96 35.24 4 34.6933 4 33.76V13.04C4 12.1067 3.96 11.56 3.88 11.4C3.8 11.24 3.54667 11.1333 3.12 11.08L0.92 10.88ZM12.2 11.08H7.48V35.72H12.2C13.64 35.72 14.8267 35.4533 15.76 34.92C16.6933 34.3867 17.3867 33.48 17.84 32.2C18.32 30.8933 18.56 29.12 18.56 26.88V19.88C18.56 17.6667 18.32 15.92 17.84 14.64C17.3867 13.36 16.6933 12.4533 15.76 11.92C14.8267 11.36 13.64 11.08 12.2 11.08ZM49.3681 30.48H50.4081V37H31.2481V35.96L33.4481 35.72C33.8748 35.6667 34.1281 35.56 34.2081 35.4C34.2881 35.24 34.3281 34.6933 34.3281 33.76V13.04C34.3281 12.1067 34.2881 11.56 34.2081 11.4C34.1281 11.24 33.8748 11.1333 33.4481 11.08L31.2481 10.88V9.8H49.8881V16.32H48.8881L47.7281 12.12C47.6481 11.8 47.5548 11.5733 47.4481 11.44C47.3681 11.28 47.1948 11.1867 46.9281 11.16C46.6615 11.1067 46.2081 11.08 45.5681 11.08H37.8081V22.64H43.1681C43.8081 22.64 44.2615 22.6267 44.5281 22.6C44.7948 22.5467 44.9681 22.4533 45.0481 22.32C45.1548 22.16 45.2481 21.92 45.3281 21.6L46.0881 18.6H47.1281V27.96H46.0881L45.3281 24.96C45.2481 24.64 45.1548 24.4133 45.0481 24.28C44.9681 24.12 44.7948 24.0267 44.5281 24C44.2615 23.9467 43.8081 23.92 43.1681 23.92H37.8081V35.72H46.0481C46.6881 35.72 47.1415 35.7067 47.4081 35.68C47.6748 35.6267 47.8481 35.5333 47.9281 35.4C48.0348 35.24 48.1281 35 48.2081 34.68L49.3681 30.48ZM41.8481 6.44L41.0081 5.68C41.6481 4.77333 42.1681 3.90667 42.5681 3.08C42.9948 2.25333 43.3681 1.22666 43.6881 -2.86102e-06H47.5281C46.7281 1.22666 45.8748 2.34666 44.9681 3.36C44.0881 4.37333 43.0481 5.4 41.8481 6.44ZM75.5713 30.4H76.6513V37H58.4513V35.96L60.6513 35.72C61.0779 35.6667 61.3313 35.56 61.4113 35.4C61.4913 35.24 61.5312 34.6933 61.5312 33.76V13.04C61.5312 12.1067 61.4913 11.56 61.4113 11.4C61.3313 11.24 61.0779 11.1333 60.6513 11.08L58.4513 10.88V9.8H68.0913V10.88L65.8913 11.08C65.4646 11.1333 65.2113 11.24 65.1313 11.4C65.0513 11.56 65.0113 12.1067 65.0113 13.04V35.72H72.2513C72.8913 35.72 73.3446 35.7067 73.6113 35.68C73.8779 35.6267 74.0513 35.5333 74.1313 35.4C74.2379 35.24 74.3313 35 74.4113 34.68L75.5713 30.4ZM83.0372 10.88V9.8H92.6772V10.88L90.4772 11.08C90.0505 11.1333 89.7972 11.24 89.7172 11.4C89.6372 11.56 89.5972 12.1067 89.5972 13.04V33.76C89.5972 34.6933 89.6372 35.24 89.7172 35.4C89.7972 35.56 90.0505 35.6667 90.4772 35.72L92.6772 35.96V37H83.0372V35.96L85.2372 35.72C85.6639 35.6667 85.9172 35.56 85.9972 35.4C86.0772 35.24 86.1172 34.6933 86.1172 33.76V13.04C86.1172 12.1067 86.0772 11.56 85.9972 11.4C85.9172 11.24 85.6639 11.1333 85.2372 11.08L83.0372 10.88ZM111.954 37.4C108.567 37.4 105.98 36.2667 104.194 34C102.434 31.7333 101.554 28.6933 101.554 24.88V21.88C101.554 19.3733 101.927 17.1867 102.674 15.32C103.447 13.4533 104.58 12 106.074 10.96C107.567 9.92 109.394 9.4 111.554 9.4C113.554 9.4 115.207 9.8 116.514 10.6C117.82 11.3733 118.767 12.4 119.354 13.68C119.94 14.9333 120.127 16.3067 119.914 17.8L116.474 18.64C116.767 16.08 116.474 14.12 115.594 12.76C114.714 11.3733 113.367 10.68 111.554 10.68C109.527 10.68 107.98 11.4 106.914 12.84C105.874 14.28 105.354 16.6267 105.354 19.88V26.88C105.354 30.16 105.914 32.52 107.034 33.96C108.154 35.4 109.82 36.12 112.034 36.12C112.914 36.12 113.754 35.9733 114.554 35.68C115.354 35.36 116.034 34.8267 116.594 34.08C117.154 33.3333 117.5 32.2933 117.634 30.96L120.114 31.6C119.527 33.7333 118.487 35.24 116.994 36.12C115.527 36.9733 113.847 37.4 111.954 37.4ZM146.071 30.48H147.111V37H127.951V35.96L130.151 35.72C130.578 35.6667 130.831 35.56 130.911 35.4C130.991 35.24 131.031 34.6933 131.031 33.76V13.04C131.031 12.1067 130.991 11.56 130.911 11.4C130.831 11.24 130.578 11.1333 130.151 11.08L127.951 10.88V9.8H146.591V16.32H145.591L144.431 12.12C144.351 11.8 144.258 11.5733 144.151 11.44C144.071 11.28 143.898 11.1867 143.631 11.16C143.365 11.1067 142.911 11.08 142.271 11.08H134.511V22.64H139.871C140.511 22.64 140.965 22.6267 141.231 22.6C141.498 22.5467 141.671 22.4533 141.751 22.32C141.858 22.16 141.951 21.92 142.031 21.6L142.791 18.6H143.831V27.96H142.791L142.031 24.96C141.951 24.64 141.858 24.4133 141.751 24.28C141.671 24.12 141.498 24.0267 141.231 24C140.965 23.9467 140.511 23.92 139.871 23.92H134.511V35.72H142.751C143.391 35.72 143.845 35.7067 144.111 35.68C144.378 35.6267 144.551 35.5333 144.631 35.4C144.738 35.24 144.831 35 144.911 34.68L146.071 30.48Z" fill="black"/>
</svg>
