<svg width="148" height="38" fill="none" xmlns="http://www.w3.org/2000/svg"><path d="M.92 10.88V9.8h11.36c3.253 0 5.747 1.053 7.48 3.16 1.733 2.107 2.6 5.08 2.6 8.92v3c0 3.867-.867 6.853-2.6 8.96-1.733 2.107-4.227 3.16-7.48 3.16H.92v-1.04l2.2-.24c.427-.053.68-.16.76-.32.08-.16.12-.707.12-1.64V13.04c0-.933-.04-1.48-.12-1.64-.08-.16-.333-.267-.76-.32l-2.2-.2Zm11.28.2H7.48v24.64h4.72c1.44 0 2.627-.267 3.56-.8.933-.533 1.627-1.44 2.08-2.72.48-1.307.72-3.08.72-5.32v-7c0-2.213-.24-3.96-.72-5.24-.453-1.28-1.147-2.187-2.08-2.72-.933-.56-2.12-.84-3.56-.84Zm37.168 19.4h1.04V37h-19.16v-1.04l2.2-.24c.427-.053.68-.16.76-.32.08-.16.12-.707.12-1.64V13.04c0-.933-.04-1.48-.12-1.64-.08-.16-.333-.267-.76-.32l-2.2-.2V9.8h18.64v6.52h-1l-1.16-4.2c-.08-.32-.173-.547-.28-.68-.08-.16-.253-.253-.52-.28-.267-.053-.72-.08-1.36-.08h-7.76v11.56h5.36a15.7 15.7 0 0 0 1.36-.04c.267-.053.44-.147.52-.28.107-.16.2-.4.28-.72l.76-3h1.04v9.36h-1.04l-.76-3c-.08-.32-.173-.547-.28-.68-.08-.16-.253-.253-.52-.28-.267-.053-.72-.08-1.36-.08h-5.36v11.8h8.24a15.7 15.7 0 0 0 1.36-.04c.267-.053.44-.147.52-.28.107-.16.2-.4.28-.72l1.16-4.2Zm-7.52-24.04-.84-.76c.64-.907 1.16-1.773 1.56-2.6.427-.827.8-1.853 1.12-3.08h3.84a27.804 27.804 0 0 1-2.56 3.36 31.11 31.11 0 0 1-3.12 3.08ZM75.571 30.4h1.08V37h-18.2v-1.04l2.2-.24c.427-.053.68-.16.76-.32.08-.16.12-.707.12-1.64V13.04c0-.933-.04-1.48-.12-1.64-.08-.16-.333-.267-.76-.32l-2.2-.2V9.8h9.64v1.08l-2.2.2c-.426.053-.68.16-.76.32-.08.16-.12.707-.12 1.64v22.68h7.24c.64 0 1.094-.013 1.36-.04.267-.053.44-.147.52-.28.107-.16.2-.4.28-.72l1.16-4.28Zm7.466-19.52V9.8h9.64v1.08l-2.2.2c-.427.053-.68.16-.76.32-.08.16-.12.707-.12 1.64v20.72c0 .933.04 1.48.12 1.64.08.16.334.267.76.32l2.2.24V37h-9.64v-1.04l2.2-.24c.427-.053.68-.16.76-.32.08-.16.12-.707.12-1.64V13.04c0-.933-.04-1.48-.12-1.64-.08-.16-.333-.267-.76-.32l-2.2-.2Zm28.917 26.52c-3.387 0-5.974-1.133-7.76-3.4-1.76-2.267-2.64-5.307-2.64-9.12v-3c0-2.507.373-4.693 1.12-6.56.773-1.867 1.906-3.32 3.4-4.36 1.493-1.04 3.32-1.56 5.48-1.56 2 0 3.653.4 4.96 1.2 1.306.773 2.253 1.8 2.84 3.08.586 1.253.773 2.627.56 4.12l-3.44.84c.293-2.56 0-4.52-.88-5.88-.88-1.387-2.227-2.08-4.04-2.08-2.027 0-3.574.72-4.64 2.16-1.04 1.44-1.56 3.787-1.56 7.04v7c0 3.28.56 5.64 1.68 7.08 1.12 1.44 2.786 2.16 5 2.16.88 0 1.72-.147 2.52-.44.8-.32 1.48-.853 2.04-1.6.56-.747.906-1.787 1.04-3.12l2.48.64c-.587 2.133-1.627 3.64-3.12 4.52-1.467.853-3.147 1.28-5.04 1.28Zm34.117-6.92h1.04V37h-19.16v-1.04l2.2-.24c.427-.053.68-.16.76-.32.08-.16.12-.707.12-1.64V13.04c0-.933-.04-1.48-.12-1.64-.08-.16-.333-.267-.76-.32l-2.2-.2V9.8h18.64v6.52h-1l-1.16-4.2c-.08-.32-.173-.547-.28-.68-.08-.16-.253-.253-.52-.28-.266-.053-.72-.08-1.36-.08h-7.76v11.56h5.36c.64 0 1.094-.013 1.36-.04.267-.053.44-.147.52-.28.107-.16.2-.4.28-.72l.76-3h1.04v9.36h-1.04l-.76-3c-.08-.32-.173-.547-.28-.68-.08-.16-.253-.253-.52-.28-.266-.053-.72-.08-1.36-.08h-5.36v11.8h8.24c.64 0 1.094-.013 1.36-.04.267-.053.44-.147.52-.28.107-.16.2-.4.28-.72l1.16-4.2Z" fill="#000"/></svg>